# 3ds Max Wavefront OBJ Exporter v0.97b - (c)2007 guruware
# File Created: 08.12.2017 23:46:42

mtllib clothe2.mtl

#
# object Object002
#

v  -21.6653 40.7101 1.0645
v  -18.8822 42.3050 1.0645
v  -20.8146 40.1579 -3.3199
v  -16.1858 41.7483 -3.6958
v  -17.4638 39.0032 -6.9668
v  -12.4262 41.2984 -4.9914
v  -12.7370 38.0841 -8.5334
v  -7.8057 42.4366 -3.5177
v  -7.8790 37.8216 -8.5334
v  -1.7217 38.0684 -8.5270
v  -2.9629 42.1144 -3.5177
v  2.2541 41.9406 -4.9914
v  2.6248 39.3971 -7.7060
v  -26.3920 34.8017 1.0645
v  -24.0352 33.7166 -4.9914
v  -19.5645 31.5193 -7.6892
v  -13.5248 29.6811 -10.2945
v  -7.3538 28.7620 -11.8350
v  -1.4004 28.7942 -11.8350
v  5.1463 31.1068 -9.2282
v  5.9333 40.1064 -5.5760
v  9.5427 33.3126 -7.6892
v  8.5886 40.9962 -2.1967
v  12.6648 35.1007 -4.9914
v  10.2147 42.0257 1.0645
v  15.3607 36.5086 1.0645
v  0.3654 45.4368 1.0645
v  2.4515 44.7316 1.0645
v  5.3502 42.4543 -3.0665
v  5.3489 43.8984 1.0645
v  7.6346 42.8418 1.0645
v  -16.0195 43.5987 1.0645
v  -12.5974 44.6718 1.0645
v  -10.5000 45.1782 1.0645
v  -20.8146 40.1579 4.4168
v  -16.1858 41.7483 5.7064
v  -17.4638 39.0032 8.6068
v  -12.4262 41.2984 7.1203
v  -12.7370 38.0842 9.5639
v  -8.3486 41.5128 7.1203
v  -6.7059 39.6446 9.7586
v  2.2541 41.9406 7.1203
v  -1.7098 41.1906 7.1203
v  -3.1547 39.5656 9.7493
v  2.6248 39.3971 8.5993
v  -24.0352 33.7166 7.1203
v  -19.5645 31.5193 9.8182
v  -13.5248 29.6811 11.3571
v  -7.3538 28.7620 12.3059
v  -1.4004 28.7942 12.3059
v  5.1463 31.1068 11.3571
v  5.9333 40.1064 7.0250
v  9.5427 33.3126 9.8182
v  8.5886 40.9962 4.3353
v  12.6648 35.1007 7.1203
v  5.3502 42.4543 4.7300
# 56 vertices

vn -0.4870 0.8498 -0.2015
vn -0.3319 0.8967 -0.2929
vn -0.3130 0.7842 -0.5358
vn -0.1170 0.7828 -0.6112
vn -0.0766 0.7417 -0.6663
vn 0.0327 0.7387 -0.6732
vn 0.0397 0.7350 -0.6769
vn -0.1569 0.7489 -0.6438
vn -0.0904 0.7206 -0.6875
vn -0.7610 0.6088 -0.2243
vn -0.7786 0.4908 -0.3910
vn -0.5750 0.4626 -0.6748
vn -0.4296 0.2055 -0.8793
vn -0.2801 0.1698 -0.9448
vn -0.3280 0.2231 -0.9179
vn 0.0110 0.2041 -0.9789
vn -0.1827 0.3273 -0.9271
vn 0.0741 0.3373 -0.9385
vn 0.2787 0.2548 -0.9260
vn 0.4714 0.2959 -0.8308
vn 0.1411 0.3616 -0.9216
vn 0.6052 0.5113 -0.6102
vn 0.3192 0.5770 -0.7518
vn 0.5871 0.6406 -0.4950
vn 0.6582 0.6139 -0.4357
vn 0.2357 0.6974 -0.6769
vn -0.0869 0.9058 -0.4146
vn 0.2764 0.7198 -0.6367
vn 0.2482 0.7355 -0.6304
vn 0.2519 0.8758 -0.4118
vn 0.0485 0.9429 -0.3296
vn 0.4000 0.8652 -0.3023
vn 0.6622 0.6178 -0.4241
vn 0.2449 0.8728 -0.4223
vn 0.2749 0.8690 -0.4114
vn -0.3899 0.8628 -0.3218
vn -0.2815 0.8976 -0.3391
vn -0.0636 0.8711 -0.4870
vn -0.2058 0.8524 -0.4807
vn -0.0396 0.8470 -0.5301
vn -0.0127 0.3417 -0.9397
vn -0.0018 0.3359 -0.9419
vn -0.4801 0.8378 0.2599
vn -0.3875 0.8614 0.3284
vn -0.4038 0.7466 0.5287
vn -0.1521 0.7504 0.6432
vn -0.0426 0.6073 0.7934
vn -0.0319 0.6069 0.7942
vn -0.2102 0.7314 0.6488
vn -0.1659 0.8770 0.4509
vn 0.1818 0.5140 0.8383
vn -0.7477 0.5982 0.2883
vn -0.7490 0.5373 0.3878
vn -0.5757 0.5440 0.6104
vn -0.4043 0.2556 0.8782
vn -0.1568 0.2005 0.9671
vn -0.1770 0.2212 0.9590
vn -0.0872 0.2157 0.9726
vn -0.1138 0.2328 0.9658
vn 0.1958 0.2565 0.9465
vn 0.0234 0.3220 0.9465
vn 0.3274 0.3864 0.8622
vn 0.1021 0.4242 0.8998
vn 0.5007 0.5431 0.6740
vn 0.3198 0.5763 0.7520
vn 0.5884 0.6402 0.4940
vn 0.6582 0.6139 0.4357
vn 0.2532 0.7492 0.6121
vn -0.1697 0.8971 0.4079
vn 0.4793 0.4924 0.7266
vn 0.1726 0.7101 0.6826
vn 0.2519 0.8758 0.4118
vn 0.1275 0.9228 0.3635
vn 0.3951 0.8547 0.3366
vn 0.6403 0.6123 0.4638
vn 0.1604 0.8789 0.4491
vn 0.2750 0.8695 0.4104
vn -0.3889 0.8605 0.3291
vn -0.2807 0.8950 0.3467
vn -0.0790 0.8699 0.4868
vn -0.2058 0.8524 0.4807
vn -0.0446 0.8476 0.5288
vn 0.0076 0.2275 0.9738
vn -0.0012 0.2307 0.9730
vn 0.0521 0.7831 -0.6196
vn -0.0288 0.7358 -0.6766
# 86 vertex normals

vt 0.6509 0.7905 0.5050
vt 0.6704 0.8020 0.5050
vt 0.6568 0.7865 0.4844
vt 0.6894 0.7980 0.4827
vt 0.6765 0.7823 0.4673
vt 0.7119 0.7988 0.4766
vt 0.7098 0.7756 0.4600
vt 0.7444 0.8071 0.4835
vt 0.7439 0.7737 0.4600
vt 0.7872 0.7755 0.4600
vt 0.7784 0.8047 0.4835
vt 0.8151 0.8035 0.4766
vt 0.8177 0.7851 0.4639
vt 0.6164 0.7478 0.5050
vt 0.6282 0.7410 0.4766
vt 0.6618 0.7282 0.4640
vt 0.7042 0.7149 0.4517
vt 0.7476 0.7083 0.4445
vt 0.7894 0.7085 0.4445
vt 0.8354 0.7252 0.4567
vt 0.8409 0.7902 0.4739
vt 0.8663 0.7412 0.4640
vt 0.8596 0.7967 0.4897
vt 0.8882 0.7541 0.4766
vt 0.8710 0.8041 0.5050
vt 0.9072 0.7643 0.5050
vt 0.8018 0.8287 0.5050
vt 0.8165 0.8236 0.5050
vt 0.8368 0.8072 0.4856
vt 0.8368 0.8176 0.5050
vt 0.8529 0.8100 0.5050
vt 0.6905 0.8113 0.5050
vt 0.7107 0.8232 0.5050
vt 0.7255 0.8269 0.5050
vt 0.1169 0.7828 0.5050
vt 0.1230 0.7789 0.5207
vt 0.1367 0.7941 0.5050
vt 0.1559 0.7901 0.5267
vt 0.1468 0.7707 0.5403
vt 0.1827 0.7869 0.5334
vt 0.1805 0.7642 0.5448
vt 0.2117 0.7885 0.5334
vt 0.2150 0.7623 0.5454
vt 0.2872 0.7915 0.5334
vt 0.2589 0.7862 0.5334
vt 0.2589 0.7641 0.5454
vt 0.2898 0.7735 0.5403
vt 0.0889 0.7497 0.5050
vt 0.1035 0.7415 0.5334
vt 0.1319 0.7177 0.5460
vt 0.1749 0.7047 0.5532
vt 0.2188 0.6982 0.5577
vt 0.2611 0.6984 0.5577
vt 0.3077 0.7251 0.5532
vt 0.3133 0.7785 0.5329
vt 0.3365 0.7402 0.5460
vt 0.3322 0.7848 0.5203
vt 0.3591 0.7534 0.5334
vt 0.3438 0.7921 0.5050
vt 0.3779 0.7654 0.5050
vt 0.2886 0.8113 0.5050
vt 0.2737 0.8163 0.5050
vt 0.3092 0.7951 0.5222
vt 0.3092 0.8054 0.5050
vt 0.3254 0.7979 0.5050
vt 0.1571 0.8032 0.5050
vt 0.1815 0.8108 0.5050
vt 0.1964 0.8144 0.5050
# 68 texture coords

g Object002
usemtl Material__3
s off
f 1/1/1 2/2/1 3/3/1 
f 3/3/2 2/2/2 4/4/2 
f 4/4/3 5/5/3 3/3/3 
f 5/5/4 4/4/4 6/6/4 
f 6/6/5 7/7/5 5/5/5 
f 7/7/6 6/6/6 8/8/6 
f 8/8/7 9/9/7 7/7/7 
f 10/10/8 11/11/8 12/12/8 
f 12/12/9 13/13/9 10/10/9 
f 14/14/10 1/1/10 3/3/10 
f 3/3/11 15/15/11 14/14/11 
f 15/15/12 3/3/12 5/5/12 
f 5/5/13 16/16/13 15/15/13 
f 16/16/14 5/5/14 7/7/14 
f 7/7/15 17/17/15 16/16/15 
f 17/17/16 7/7/16 9/9/16 
f 9/9/17 18/18/17 17/17/17 
f 19/19/18 10/10/18 13/13/18 
f 13/13/19 20/20/19 19/19/19 
f 20/20/20 13/13/20 21/21/20 
f 21/21/21 22/22/21 20/20/21 
f 22/22/22 21/21/22 23/23/22 
f 23/23/23 24/24/23 22/22/23 
f 24/24/24 23/23/24 25/25/24 
f 25/25/25 26/26/25 24/24/25 
f 11/11/26 27/27/26 28/28/26 
f 28/28/27 12/12/27 11/11/27 
f 13/13/28 12/12/28 29/29/28 
f 29/29/29 21/21/29 13/13/29 
f 12/12/30 28/28/30 30/30/30 
f 30/30/31 29/29/31 12/12/31 
f 29/29/32 30/30/32 31/31/32 
f 21/21/33 29/29/33 31/31/33 
f 31/31/34 23/23/34 21/21/34 
f 23/23/35 31/31/35 25/25/35 
f 2/2/36 32/32/36 4/4/36 
f 4/4/37 32/32/37 33/33/37 
f 33/33/38 6/6/38 4/4/38 
f 6/6/39 33/33/39 34/34/39 
f 34/34/40 8/8/40 6/6/40 
f 18/18/41 9/9/41 10/10/41 
f 10/10/42 19/19/42 18/18/42 
f 1/35/43 35/36/43 2/37/43 
f 36/38/44 2/37/44 35/36/44 
f 35/36/45 37/39/45 36/38/45 
f 38/40/46 36/38/46 37/39/46 
f 37/39/47 39/41/47 38/40/47 
f 40/42/48 38/40/48 39/41/48 
f 39/41/49 41/43/49 40/42/49 
f 42/44/50 43/45/50 44/46/50 
f 44/46/51 45/47/51 42/44/51 
f 35/36/52 1/35/52 14/48/52 
f 14/48/53 46/49/53 35/36/53 
f 37/39/54 35/36/54 46/49/54 
f 46/49/55 47/50/55 37/39/55 
f 39/41/56 37/39/56 47/50/56 
f 47/50/57 48/51/57 39/41/57 
f 41/43/58 39/41/58 48/51/58 
f 48/51/59 49/52/59 41/43/59 
f 45/47/60 44/46/60 50/53/60 
f 50/53/61 51/54/61 45/47/61 
f 52/55/62 45/47/62 51/54/62 
f 51/54/63 53/56/63 52/55/63 
f 54/57/64 52/55/64 53/56/64 
f 53/56/65 55/58/65 54/57/65 
f 25/59/66 54/57/66 55/58/66 
f 55/58/67 26/60/67 25/59/67 
f 28/61/68 27/62/68 43/45/68 
f 43/45/69 42/44/69 28/61/69 
f 56/63/70 42/44/70 45/47/70 
f 45/47/71 52/55/71 56/63/71 
f 30/64/72 28/61/72 42/44/72 
f 42/44/73 56/63/73 30/64/73 
f 56/63/74 31/65/74 30/64/74 
f 31/65/75 56/63/75 52/55/75 
f 52/55/76 54/57/76 31/65/76 
f 54/57/77 25/59/77 31/65/77 
f 2/37/78 36/38/78 32/66/78 
f 33/67/79 32/66/79 36/38/79 
f 36/38/80 38/40/80 33/67/80 
f 34/68/81 33/67/81 38/40/81 
f 38/40/82 40/42/82 34/68/82 
f 44/46/83 41/43/83 49/52/83 
f 49/52/84 50/53/84 44/46/84 
f 8/8/85 11/11/85 10/10/85 
f 10/10/86 9/9/86 8/8/86 
# 86 faces

