# 3ds Max Wavefront OBJ Exporter v0.97b - (c)2007 guruware
# File Created: 08.12.2017 23:36:02

mtllib hat.mtl

#
# object Cylinder01
#

#
# object Object001
#

v  -7.5183 68.4103 2.0568
v  -3.7911 63.6657 3.1954
v  -3.3865 63.6650 2.0568
v  -4.8403 63.6657 4.0731
v  -6.1683 63.6653 4.4889
v  -7.4379 63.6647 4.3475
v  -8.4253 63.6639 3.6814
v  -8.9718 63.6629 2.6431
v  -8.9721 63.6617 1.4705
v  -8.4264 63.6607 0.4322
v  -7.4394 63.6600 -0.2339
v  -6.1700 63.6602 -0.3752
v  -4.8417 63.6615 0.0406
v  -3.7919 63.6634 0.9183
v  -2.6973 60.5915 3.8922
v  -2.0942 60.5711 2.0568
v  -4.2912 60.6048 5.3071
v  -6.3518 60.6090 5.9774
v  -8.3672 60.6010 5.7495
v  -9.9608 60.5831 4.6757
v  -10.8510 60.5605 3.0020
v  -10.8588 60.5372 1.1117
v  -9.9837 60.5147 -0.5621
v  -8.4019 60.4979 -1.6359
v  -6.3898 60.4961 -1.8637
v  -4.3217 60.5139 -1.1934
v  -2.7136 60.5433 0.2215
v  -0.0670 53.3936 4.7701
v  0.7091 53.2712 2.0568
v  -2.2071 53.5010 6.8618
v  -5.0831 53.5534 7.8527
v  -8.0203 53.5067 7.5159
v  -10.4189 53.3873 5.9284
v  -11.7859 53.2553 3.4541
v  -11.8281 53.1296 0.6596
v  -10.5500 52.9971 -1.8148
v  -8.2305 52.8813 -3.4022
v  -5.3174 52.8561 -3.7391
v  -2.3898 52.9574 -2.7481
v  -0.1581 53.1224 -0.6564
v  3.0420 51.6484 6.8752
v  4.2503 51.2585 2.0568
v  -0.3796 51.1224 10.5898
v  -5.1792 51.4587 12.3495
v  -10.4302 51.2280 11.7513
v  -14.9228 50.6502 8.9323
v  -17.5050 50.1754 4.5381
v  -17.6227 49.8254 -0.4245
v  -15.3607 49.3474 -4.8186
v  -11.2541 48.7764 -7.6377
v  -6.1382 48.6053 -8.2359
v  -1.0653 49.0820 -6.4761
v  2.7546 50.7934 -2.7616
v  8.8497 49.0535 9.6657
v  10.8783 48.8251 2.0568
v  3.9031 50.4646 15.5314
v  -3.0566 51.8855 18.3103
v  -11.6761 51.0408 17.3657
v  -19.4577 49.1474 12.9140
v  -22.1074 48.2216 5.9751
v  -22.1074 48.2216 -1.8615
v  -19.6047 46.8549 -8.8004
v  -13.4582 45.7381 -13.2521
v  -5.3689 45.0051 -14.1967
v  5.6487 46.4550 -11.4178
v  8.9764 47.8482 -5.5520
# 66 vertices

vn 0.7285 0.6343 0.2585
vn 0.5286 0.5669 0.6319
vn 0.2590 0.4979 0.8277
vn -0.1000 0.4312 0.8967
vn -0.5211 0.3638 0.7721
vn -0.8409 0.3121 0.4422
vn -0.9562 0.2927 0.0000
vn -0.8408 0.3120 -0.4423
vn -0.5209 0.3637 -0.7722
vn -0.0999 0.4308 -0.8969
vn 0.2587 0.4974 -0.8280
vn 0.5280 0.5663 -0.6328
vn 0.7282 0.6341 -0.2602
vn 0.8716 0.3802 0.3095
vn 0.8841 0.3693 0.2864
vn 0.5906 0.3906 0.7061
vn 0.6169 0.3762 0.6913
vn 0.2727 0.4080 0.8713
vn 0.2840 0.4019 0.8705
vn -0.0996 0.4389 0.8930
vn -0.1026 0.4405 0.8919
vn -0.4910 0.4795 0.7273
vn -0.4936 0.4812 0.7244
vn -0.7624 0.5082 0.4007
vn -0.7628 0.5089 0.3989
vn -0.8560 0.5169 -0.0002
vn -0.8555 0.5179 -0.0028
vn -0.7637 0.5051 -0.4020
vn -0.7614 0.5063 -0.4049
vn -0.4925 0.4736 -0.7302
vn -0.4911 0.4741 -0.7308
vn -0.1000 0.4292 -0.8976
vn -0.1013 0.4288 -0.8977
vn 0.2748 0.3900 -0.8789
vn 0.2805 0.3926 -0.8759
vn 0.5966 0.3657 -0.7144
vn 0.6085 0.3747 -0.6995
vn 0.8765 0.3661 -0.3126
vn 0.8782 0.3709 -0.3020
vn 0.8877 0.3595 0.2877
vn 0.9055 0.3477 0.2433
vn 0.6265 0.3376 0.7025
vn 0.6691 0.3260 0.6679
vn 0.2961 0.2947 0.9085
vn 0.3164 0.2905 0.9030
vn -0.1101 0.2351 0.9657
vn -0.1144 0.2359 0.9650
vn -0.5514 0.1770 0.8153
vn -0.5493 0.1765 0.8168
vn -0.8749 0.1406 0.4635
vn -0.8700 0.1378 0.4733
vn -0.9916 0.1296 0.0025
vn -0.9918 0.1275 0.0093
vn -0.8763 0.1427 -0.4601
vn -0.8762 0.1427 -0.4603
vn -0.5515 0.1766 -0.8152
vn -0.5498 0.1774 -0.8163
vn -0.1095 0.2224 -0.9688
vn -0.1101 0.2222 -0.9688
vn 0.2953 0.2644 -0.9181
vn 0.3007 0.2669 -0.9156
vn 0.6268 0.3009 -0.7187
vn 0.6383 0.3083 -0.7053
vn 0.8890 0.3414 -0.3052
vn 0.8894 0.3421 -0.3030
vn 0.4426 0.8926 0.0863
vn 0.4934 0.8681 0.0535
vn 0.3878 0.8514 0.3531
vn 0.2567 0.8956 0.3633
vn 0.1609 0.8934 0.4196
vn 0.2236 0.8677 0.4440
vn -0.0651 0.8938 0.4438
vn -0.0874 0.9037 0.4191
vn -0.2892 0.8826 0.3706
vn -0.3091 0.8997 0.3082
vn -0.4363 0.8786 0.1942
vn -0.4333 0.8872 0.1588
vn -0.4906 0.8708 -0.0318
vn -0.4809 0.8753 -0.0503
vn -0.4611 0.8409 -0.2832
vn -0.4260 0.8493 -0.3117
vn -0.3232 0.7844 -0.5295
vn -0.2635 0.7959 -0.5451
vn -0.0721 0.7313 -0.6782
vn -0.0543 0.7361 -0.6747
vn 0.2022 0.7140 -0.6704
vn 0.1747 0.6994 -0.6930
vn 0.3479 0.8297 -0.4366
vn 0.2981 0.7127 -0.6350
vn 0.4840 0.8516 -0.2014
vn 0.4977 0.8349 -0.2351
vn 0.3976 0.9172 0.0255
vn 0.3439 0.9368 0.0636
vn -0.0047 0.9907 0.1360
vn 0.3701 0.9247 0.0896
vn 0.0386 0.9956 -0.0850
vn 0.1877 0.9817 -0.0320
vn -0.0465 0.9987 0.0230
vn -0.0933 0.9949 -0.0380
vn -0.2067 0.9697 0.1306
vn -0.2267 0.9738 -0.0178
vn -0.3589 0.9268 0.1107
vn -0.3184 0.9479 -0.0049
vn -0.3193 0.9458 -0.0591
vn -0.3908 0.9205 0.0000
vn -0.3007 0.9191 -0.2548
vn -0.2456 0.9305 -0.2719
vn -0.1635 0.8931 -0.4191
vn -0.1378 0.8989 -0.4158
vn -0.0322 0.8537 -0.5198
vn 0.0230 0.8754 -0.4828
vn 0.0560 0.9111 -0.4083
vn 0.0172 0.8568 -0.5153
vn 0.1514 0.8294 -0.5378
vn 0.1437 0.9414 -0.3051
vn 0.3381 0.9209 -0.1938
vn 0.3429 0.9171 -0.2034
vn -0.0055 -0.9904 0.1380
vn -0.3423 -0.9375 -0.0631
vn -0.0463 -0.9890 0.1407
vn 0.0283 -0.8595 0.5103
vn 0.0486 -0.9851 0.1647
vn 0.2087 -0.9767 0.0506
vn 0.1090 -0.9890 0.0997
vn -0.4793 -0.8777 -0.0000
vn -0.0245 -0.9858 0.1659
vn -0.0721 -0.9864 0.1479
vn -0.0084 -0.9747 0.2234
vn 0.1101 -0.9853 0.1306
vn 0.3249 -0.9449 0.0401
# 130 vertex normals

vt 0.2176 0.9852 -0.7394
vt 0.2402 0.9548 -0.6831
vt 0.2427 0.9548 -0.7394
vt 0.2338 0.9548 -0.6397
vt 0.2258 0.9548 -0.6191
vt 0.2181 0.9548 -0.6261
vt 0.2121 0.9548 -0.6590
vt 0.2088 0.9548 -0.7104
vt 0.2088 0.9548 -0.7684
vt 0.7474 0.9859 0.5096
vt 0.7413 0.9545 0.5020
vt 0.7376 0.9545 0.5069
vt 0.7480 0.9545 0.4989
vt 0.7566 0.9545 0.4982
vt 0.7656 0.9545 0.5002
vt 0.7727 0.9545 0.5043
vt 0.7755 0.9545 0.5096
vt 0.2468 0.9351 -0.6486
vt 0.2505 0.9350 -0.7394
vt 0.2372 0.9352 -0.5786
vt 0.2247 0.9352 -0.5454
vt 0.2125 0.9351 -0.5567
vt 0.2028 0.9350 -0.6098
vt 0.1974 0.9349 -0.6927
vt 0.1973 0.9347 -0.7862
vt 0.7307 0.9337 0.4974
vt 0.7248 0.9338 0.5052
vt 0.7414 0.9336 0.4923
vt 0.7551 0.9336 0.4913
vt 0.7691 0.9337 0.4944
vt 0.7800 0.9339 0.5010
vt 0.7842 0.9341 0.5096
vt 0.2641 0.8760 -0.6052
vt 0.2688 0.8753 -0.7394
vt 0.2511 0.8767 -0.5017
vt 0.2337 0.8771 -0.4526
vt 0.2158 0.8768 -0.4693
vt 0.2013 0.8760 -0.5478
vt 0.1930 0.8751 -0.6703
vt 0.1927 0.8743 -0.8086
vt 0.7256 0.8685 0.4915
vt 0.7169 0.8694 0.5031
vt 0.7413 0.8677 0.4841
vt 0.7611 0.8675 0.4825
vt 0.7810 0.8682 0.4871
vt 0.7961 0.8693 0.4969
vt 0.8020 0.8703 0.5096
vt 0.2817 0.8778 -0.5010
vt 0.2886 0.8784 -0.7394
vt 0.2609 0.8744 -0.3172
vt 0.2318 0.8766 -0.2301
vt 0.1999 0.8751 -0.2597
vt 0.1727 0.8714 -0.3992
vt 0.1575 0.8704 -0.6166
vt 0.1567 0.8682 -0.8622
vt 0.6942 0.8599 0.4774
vt 0.6806 0.8594 0.4980
vt 0.7221 0.8561 0.4642
vt 0.7568 0.8550 0.4614
vt 0.7912 0.8581 0.4696
vt 0.8171 0.8694 0.4871
vt 0.8252 0.8658 0.5096
vt 0.3177 0.8705 -0.3629
vt 0.3300 0.8690 -0.7394
vt 0.2865 0.8733 -0.0727
vt 0.2447 0.8793 0.0649
vt 0.1924 0.8739 0.0181
vt 0.1456 0.8664 -0.2022
vt 0.1291 0.8600 -0.5455
vt 0.1291 0.8600 -0.9333
vt 0.6654 0.8434 0.4587
vt 0.6506 0.8488 0.4913
vt 0.7071 0.8360 0.4379
vt 0.7620 0.8312 0.4335
vt 0.8368 0.8407 0.4465
vt 0.8538 0.8474 0.4740
vt 0.8620 0.8523 0.5096
vt 0.8530 0.8553 0.5453
vt 0.8228 0.8605 0.5728
vt 0.7764 0.8611 0.5858
vt 0.7179 0.8555 0.5814
vt 0.6681 0.8549 0.5605
vt 0.6506 0.8488 0.5280
# 83 texture coords

g Object001
usemtl Material__3
s off
f 1/1/1 2/2/1 3/3/1 
f 1/1/2 4/4/2 2/2/2 
f 1/1/3 5/5/3 4/4/3 
f 1/1/4 6/6/4 5/5/4 
f 1/1/5 7/7/5 6/6/5 
f 1/1/6 8/8/6 7/7/6 
f 1/1/7 9/9/7 8/8/7 
f 1/10/8 10/11/8 9/12/8 
f 1/10/9 11/13/9 10/11/9 
f 1/10/10 12/14/10 11/13/10 
f 1/10/11 13/15/11 12/14/11 
f 1/10/12 14/16/12 13/15/12 
f 1/10/13 3/17/13 14/16/13 
f 3/3/14 2/2/14 15/18/14 
f 15/18/15 16/19/15 3/3/15 
f 2/2/16 4/4/16 17/20/16 
f 17/20/17 15/18/17 2/2/17 
f 4/4/18 5/5/18 18/21/18 
f 18/21/19 17/20/19 4/4/19 
f 5/5/20 6/6/20 19/22/20 
f 19/22/21 18/21/21 5/5/21 
f 6/6/22 7/7/22 20/23/22 
f 20/23/23 19/22/23 6/6/23 
f 7/7/24 8/8/24 21/24/24 
f 21/24/25 20/23/25 7/7/25 
f 8/8/26 9/9/26 22/25/26 
f 22/25/27 21/24/27 8/8/27 
f 9/12/28 10/11/28 23/26/28 
f 23/26/29 22/27/29 9/12/29 
f 10/11/30 11/13/30 24/28/30 
f 24/28/31 23/26/31 10/11/31 
f 11/13/32 12/14/32 25/29/32 
f 25/29/33 24/28/33 11/13/33 
f 12/14/34 13/15/34 26/30/34 
f 26/30/35 25/29/35 12/14/35 
f 13/15/36 14/16/36 27/31/36 
f 27/31/37 26/30/37 13/15/37 
f 14/16/38 3/17/38 16/32/38 
f 16/32/39 27/31/39 14/16/39 
f 16/19/40 15/18/40 28/33/40 
f 28/33/41 29/34/41 16/19/41 
f 15/18/42 17/20/42 30/35/42 
f 30/35/43 28/33/43 15/18/43 
f 17/20/44 18/21/44 31/36/44 
f 31/36/45 30/35/45 17/20/45 
f 18/21/46 19/22/46 32/37/46 
f 32/37/47 31/36/47 18/21/47 
f 19/22/48 20/23/48 33/38/48 
f 33/38/49 32/37/49 19/22/49 
f 20/23/50 21/24/50 34/39/50 
f 34/39/51 33/38/51 20/23/51 
f 21/24/52 22/25/52 35/40/52 
f 35/40/53 34/39/53 21/24/53 
f 22/27/54 23/26/54 36/41/54 
f 36/41/55 35/42/55 22/27/55 
f 23/26/56 24/28/56 37/43/56 
f 37/43/57 36/41/57 23/26/57 
f 24/28/58 25/29/58 38/44/58 
f 38/44/59 37/43/59 24/28/59 
f 25/29/60 26/30/60 39/45/60 
f 39/45/61 38/44/61 25/29/61 
f 26/30/62 27/31/62 40/46/62 
f 40/46/63 39/45/63 26/30/63 
f 27/31/64 16/32/64 29/47/64 
f 29/47/65 40/46/65 27/31/65 
f 29/34/66 28/33/66 41/48/66 
f 41/48/67 42/49/67 29/34/67 
f 28/33/68 30/35/68 43/50/68 
f 43/50/69 41/48/69 28/33/69 
f 30/35/70 31/36/70 44/51/70 
f 44/51/71 43/50/71 30/35/71 
f 31/36/72 32/37/72 45/52/72 
f 45/52/73 44/51/73 31/36/73 
f 32/37/74 33/38/74 46/53/74 
f 46/53/75 45/52/75 32/37/75 
f 33/38/76 34/39/76 47/54/76 
f 47/54/77 46/53/77 33/38/77 
f 34/39/78 35/40/78 48/55/78 
f 48/55/79 47/54/79 34/39/79 
f 35/42/80 36/41/80 49/56/80 
f 49/56/81 48/57/81 35/42/81 
f 36/41/82 37/43/82 50/58/82 
f 50/58/83 49/56/83 36/41/83 
f 37/43/84 38/44/84 51/59/84 
f 51/59/85 50/58/85 37/43/85 
f 38/44/86 39/45/86 52/60/86 
f 52/60/87 51/59/87 38/44/87 
f 39/45/88 40/46/88 53/61/88 
f 53/61/89 52/60/89 39/45/89 
f 40/46/90 29/47/90 42/62/90 
f 42/62/91 53/61/91 40/46/91 
f 42/49/92 41/48/92 54/63/92 
f 54/63/93 55/64/93 42/49/93 
f 41/48/94 43/50/94 56/65/94 
f 56/65/95 54/63/95 41/48/95 
f 43/50/96 44/51/96 57/66/96 
f 57/66/97 56/65/97 43/50/97 
f 44/51/98 45/52/98 58/67/98 
f 58/67/99 57/66/99 44/51/99 
f 45/52/100 46/53/100 59/68/100 
f 59/68/101 58/67/101 45/52/101 
f 46/53/102 47/54/102 60/69/102 
f 60/69/103 59/68/103 46/53/103 
f 47/54/104 48/55/104 61/70/104 
f 61/70/105 60/69/105 47/54/105 
f 48/57/106 49/56/106 62/71/106 
f 62/71/107 61/72/107 48/57/107 
f 49/56/108 50/58/108 63/73/108 
f 63/73/109 62/71/109 49/56/109 
f 50/58/110 51/59/110 64/74/110 
f 64/74/111 63/73/111 50/58/111 
f 51/59/112 52/60/112 65/75/112 
f 65/75/113 64/74/113 51/59/113 
f 52/60/114 53/61/114 66/76/114 
f 66/76/115 65/75/115 52/60/115 
f 53/61/116 42/62/116 55/77/116 
f 55/77/117 66/76/117 53/61/117 
s 1
f 55/77/118 54/78/119 56/79/120 
f 56/79/120 57/80/121 58/81/122 
f 55/77/118 56/79/120 58/81/122 
f 58/81/122 59/82/123 60/83/124 
f 60/83/124 61/72/125 62/71/126 
f 58/81/122 60/83/124 62/71/126 
f 55/77/118 58/81/122 62/71/126 
f 62/71/126 63/73/127 64/74/128 
f 55/77/118 62/71/126 64/74/128 
f 55/77/118 64/74/128 65/75/129 
f 66/76/130 55/77/118 65/75/129 
# 128 faces

