# 3ds Max Wavefront OBJ Exporter v0.97b - (c)2007 guruware
# File Created: 08.12.2017 23:44:38

mtllib lefthand.mtl

#
# object Object002
#

v  -26.0144 -10.0493 4.3452
v  -26.1249 -11.3587 6.4177
v  -26.2770 -9.4806 5.9893
v  -25.9020 -10.4386 8.4864
v  -26.0015 -8.9290 8.2285
v  -26.8230 -3.3775 4.9003
v  -26.3466 -2.5921 2.4238
v  -26.4899 -2.0538 7.7888
v  -25.6949 5.3383 4.7408
v  -26.3598 4.6929 2.6531
v  -25.9543 3.8629 1.3137
v  -25.1044 -9.3335 5.9979
v  -25.0735 -8.9353 7.9749
v  -25.2591 -10.1173 8.0470
v  -25.2557 -10.9555 6.2983
v  -25.3538 -9.5663 4.4820
v  -25.2245 -8.4616 4.1207
v  -24.5496 -2.2206 5.3927
v  -24.1095 -0.6939 6.4103
v  -24.9683 -1.9726 2.5681
v  -23.8819 5.2382 4.0248
v  -24.1012 4.0909 1.3258
v  -25.4824 -8.8304 8.6382
v  -25.5745 -10.4330 8.5486
v  -25.2158 -2.7452 8.2034
v  -25.1647 0.2054 8.5943
v  -25.4428 -3.8862 10.0192
v  -24.5972 -2.1256 9.2012
v  -24.2971 0.2263 8.5742
v  -25.4367 -2.6983 1.7100
v  -24.9659 4.1122 0.6696
v  -25.6968 -10.0250 4.1738
v  -25.6996 -11.4434 6.4263
v  -25.9694 -4.2541 8.8277
v  -25.6927 -5.5576 9.4795
v  -24.7240 -5.1024 9.3336
v  -24.7746 -4.8932 10.1513
v  -25.4658 -5.3150 10.2988
v  -24.6107 -4.1730 8.8108
v  -24.7627 -3.8964 9.9955
# 40 vertices

vn -0.7007 -0.4773 -0.5302
vn -0.6810 -0.7312 -0.0396
vn -0.9965 -0.0832 0.0051
vn -0.6115 -0.4425 0.6559
vn -0.8704 0.0147 0.4921
vn -0.9991 -0.0188 -0.0369
vn -0.8530 -0.0938 -0.5135
vn -0.9314 0.0860 0.3536
vn -0.5092 0.5101 0.6932
vn -0.9977 0.0636 0.0227
vn -0.8051 -0.0575 -0.5903
vn 0.9927 -0.1055 -0.0584
vn 0.9553 -0.0857 0.2828
vn 0.9283 -0.2566 0.2691
vn 0.8571 -0.4982 -0.1309
vn 0.9056 -0.2761 -0.3220
vn 0.9042 -0.1798 -0.3873
vn 0.9788 -0.1172 -0.1678
vn 0.9941 -0.0994 -0.0422
vn 0.9582 -0.1411 -0.2489
vn 0.9084 0.2279 0.3506
vn 0.8992 -0.1706 -0.4028
vn 0.1820 0.0262 0.9830
vn 0.3846 -0.5048 0.7728
vn -0.5442 0.3136 0.7781
vn -0.3890 0.4377 0.8106
vn -0.4909 0.2224 0.8423
vn 0.7477 0.1541 0.6459
vn 0.6426 0.3230 0.6948
vn 0.2119 -0.2499 -0.9448
vn 0.1123 -0.1576 -0.9811
vn 0.2602 -0.5813 -0.7710
vn 0.2846 -0.9573 -0.0506
vn -0.8031 -0.4059 -0.4362
vn -0.4550 -0.8671 -0.2027
vn 0.6823 -0.6359 -0.3607
vn 0.6830 -0.2835 0.6731
vn -0.2479 -0.5825 0.7741
vn 0.7519 -0.4112 -0.5154
vn 0.6415 0.1908 0.7430
# 40 vertex normals

vt 0.5824 0.4303 0.5073
vt 0.5679 0.4214 0.5092
vt 0.5705 0.4342 0.5080
vt 0.5539 0.4276 0.5127
vt 0.5556 0.4379 0.5120
vt 0.5771 0.4757 0.5043
vt 0.5951 0.4811 0.5034
vt 0.5577 0.4847 0.5092
vt 0.5803 0.5351 0.5092
vt 0.5935 0.5307 0.5037
vt 0.6035 0.5250 0.5039
vt 0.0415 0.4364 0.5134
vt 0.0275 0.4391 0.5159
vt 0.0266 0.4311 0.5151
vt 0.0391 0.4254 0.5130
vt 0.0518 0.4348 0.5104
vt 0.0547 0.4424 0.5106
vt 0.0469 0.4849 0.5151
vt 0.0405 0.4953 0.5184
vt 0.0662 0.4866 0.5099
vt 0.0579 0.5357 0.5165
vt 0.0767 0.5278 0.5123
vt 0.5537 0.4386 0.5148
vt 0.5541 0.4277 0.5143
vt 0.0220 0.4399 0.5148
vt 0.0224 0.4289 0.5143
vt 0.5572 0.4800 0.5155
vt 0.0256 0.4813 0.5155
vt 0.0229 0.5014 0.5162
vt 0.0122 0.4735 0.5167
vt 0.0196 0.4855 0.5195
vt 0.0247 0.5015 0.5201
vt 0.6017 0.4803 0.5067
vt 0.6098 0.5267 0.5076
vt 0.0715 0.4816 0.5067
vt 0.0798 0.5280 0.5076
vt 0.5842 0.4305 0.5085
vt 0.0534 0.4317 0.5085
vt 0.0373 0.4221 0.5112
vt 0.0223 0.4289 0.5127
vt 0.0366 0.4226 0.5092
vt 0.0516 0.4316 0.5073
vt 0.5546 0.5001 0.5162
vt 0.5515 0.4697 0.5128
vt 0.5442 0.4723 0.5167
vt 0.0156 0.4621 0.5149
vt 0.0184 0.4652 0.5191
vt 0.0125 0.4667 0.5199
vt 0.0102 0.4638 0.5169
vt 0.0494 0.5363 0.5092
vt 0.0261 0.4860 0.5092
vt 0.0197 0.4710 0.5128
vt 0.0224 0.4716 0.5190
vt 0.0136 0.4735 0.5197
vt 0.5475 0.4609 0.5149
vt 0.5422 0.4625 0.5169
# 56 texture coords

g Object002
usemtl Material__3
s 1
f 1/1/1 2/2/2 3/3/3 
f 3/3/3 2/2/2 4/4/4 
f 4/4/4 5/5/5 3/3/3 
f 6/6/6 7/7/7 1/1/1 
f 1/1/1 3/3/3 6/6/6 
f 6/6/6 3/3/3 5/5/5 
f 5/5/5 8/8/8 6/6/6 
f 6/6/6 8/8/8 9/9/9 
f 9/9/9 10/10/10 6/6/6 
f 6/6/6 10/10/10 11/11/11 
f 11/11/11 7/7/7 6/6/6 
f 12/12/12 13/13/13 14/14/14 
f 14/14/14 15/15/15 12/12/12 
f 12/12/12 15/15/15 16/16/16 
f 16/16/16 17/17/17 12/12/12 
f 18/18/18 19/19/19 13/13/13 
f 13/13/13 12/12/12 18/18/18 
f 18/18/18 12/12/12 17/17/17 
f 17/17/17 20/20/20 18/18/18 
f 19/19/19 18/18/18 21/21/21 
f 21/21/21 18/18/18 20/20/20 
f 20/20/20 22/22/22 21/21/21 
f 23/23/23 5/5/5 4/4/4 
f 4/4/4 24/24/24 23/23/23 
f 23/25/23 24/26/24 14/14/14 
f 14/14/14 13/13/13 23/25/23 
f 25/27/25 8/8/8 5/5/5 
f 5/5/5 23/23/23 25/27/25 
f 25/28/25 23/25/23 13/13/13 
f 13/13/13 19/19/19 25/28/25 
f 26/29/26 27/30/27 28/31/28 
f 28/31/28 29/32/29 26/29/26 
f 30/33/30 7/7/7 11/11/11 
f 11/11/11 31/34/31 30/33/30 
f 22/22/22 30/35/30 31/36/31 
f 30/35/30 22/22/22 20/20/20 
f 30/33/30 32/37/32 1/1/1 
f 1/1/1 7/7/7 30/33/30 
f 30/35/30 20/20/20 17/17/17 
f 17/17/17 32/38/32 30/35/30 
f 32/38/32 17/17/17 16/16/16 
f 33/39/33 24/26/24 4/40/4 
f 4/40/4 2/41/2 33/39/33 
f 33/39/33 2/41/2 1/42/1 
f 1/42/1 32/38/32 33/39/33 
f 33/39/33 32/38/32 16/16/16 
f 16/16/16 15/15/15 33/39/33 
f 33/39/33 15/15/15 14/14/14 
f 14/14/14 24/26/24 33/39/33 
f 8/8/8 26/43/26 9/9/9 
f 8/8/8 34/44/34 27/45/27 
f 27/45/27 26/43/26 8/8/8 
f 19/19/19 21/21/21 29/32/29 
f 28/31/28 19/19/19 29/32/29 
f 35/46/35 36/47/36 37/48/37 
f 37/48/37 38/49/38 35/46/35 
f 26/29/26 29/32/29 21/21/21 
f 21/21/21 9/50/9 26/29/26 
f 8/51/8 25/28/25 34/52/34 
f 34/52/34 25/28/25 19/19/19 
f 19/19/19 39/53/39 34/52/34 
f 34/52/34 39/53/39 36/47/36 
f 36/47/36 35/46/35 34/52/34 
f 27/30/27 40/54/40 28/31/28 
f 27/30/27 38/49/38 37/48/37 
f 37/48/37 40/54/40 27/30/27 
f 34/44/34 35/55/35 38/56/38 
f 38/56/38 27/45/27 34/44/34 
f 39/53/39 19/19/19 28/31/28 
f 28/31/28 40/54/40 39/53/39 
f 39/53/39 40/54/40 37/48/37 
f 37/48/37 36/47/36 39/53/39 
# 72 faces

